<?xml version="1.0" encoding="iso-8859-1"?>
<!-- Generator: Adobe Illustrator 16.0.0, SVG Export Plug-In . SVG Version: 6.00 Build 0)  -->
<!DOCTYPE svg PUBLIC "-//W3C//DTD SVG 1.1//EN" "http://www.w3.org/Graphics/SVG/1.1/DTD/svg11.dtd">
<svg version="1.1" id="Capa_1" xmlns="http://www.w3.org/2000/svg" xmlns:xlink="http://www.w3.org/1999/xlink" x="0px" y="0px"
	 width="418.603px" height="418.603px" viewBox="0 0 418.603 418.603" style="enable-background:new 0 0 418.603 418.603;"
	 xml:space="preserve">
<g>
	<path d="M78.307,182.183c-13.233-15.544-13.096-37.395,0.308-48.802c13.4-11.408,34.992-8.053,48.223,7.49
		c13.233,15.543,13.094,37.394-0.307,48.802C113.127,201.08,91.538,197.726,78.307,182.183z M173.37,141.441
		c17.146-3.968,27.312-23.308,22.709-43.193c-4.604-19.885-22.231-32.789-39.377-28.823c-17.146,3.969-27.312,23.308-22.708,43.193
		C138.593,132.507,156.224,145.41,173.37,141.441z M339.976,133.386c-13.401-11.41-34.988-8.062-48.216,7.477
		c-13.233,15.539-13.097,37.387,0.305,48.794c13.4,11.41,34.987,8.062,48.221-7.478
		C353.513,166.641,353.376,144.796,339.976,133.386z M245.231,141.459c17.143,3.968,34.778-8.937,39.38-28.825
		c4.601-19.891-5.566-39.23-22.714-43.199c-17.144-3.968-34.779,8.937-39.38,28.825
		C217.912,118.149,228.083,137.491,245.231,141.459z M280.32,212.468c-7.033-32.756-36.13-57.315-70.996-57.315
		c-34.855,0-63.939,24.552-70.985,57.3c-21.378,12.639-35.754,35.86-35.754,62.495c0,40.12,32.519,72.646,72.646,72.646
		c12.327,0,23.912-3.104,34.088-8.506c10.156,5.402,21.754,8.506,34.088,8.506c40.111,0,72.636-32.525,72.636-72.646
		C316.028,248.323,301.672,225.127,280.32,212.468z M418.603,209.304c0,115.407-93.892,209.299-209.302,209.299
		C93.894,418.603,0,324.722,0,209.304C0,93.887,93.902,0,209.309,0S418.613,93.887,418.603,209.304z M387.866,209.304
		c0-98.459-80.1-178.567-178.564-178.567c-98.457,0-178.564,80.108-178.564,178.567c0,98.462,80.108,178.562,178.572,178.562
		C307.766,387.866,387.876,307.766,387.866,209.304z"/>
</g>
<g>
</g>
<g>
</g>
<g>
</g>
<g>
</g>
<g>
</g>
<g>
</g>
<g>
</g>
<g>
</g>
<g>
</g>
<g>
</g>
<g>
</g>
<g>
</g>
<g>
</g>
<g>
</g>
<g>
</g>
</svg>
